<svg aria-hidden="true" style="position: absolute; width: 0; height: 0; overflow: hidden;" version="1.1" xmlns="http://www.w3.org/2000/svg" xmlns:xlink="http://www.w3.org/1999/xlink">
<defs>
  <symbol fill="none" viewBox="0 0 24 24" id="name">
      <path d="M19 21C19 17.134 15.866 14 12 14C8.13401 14 5 17.134 5 21M12 11C9.79086 11 8 9.20914 8 7C8 4.79086 9.79086 3 12 3C14.2091 3 16 4.79086 16 7C16 9.20914 14.2091 11 12 11Z"></path>
  </symbol>
<symbol  id="email" viewBox="0 0 512 512">
      <path d="M510.678,112.275c-2.308-11.626-7.463-22.265-14.662-31.054c-1.518-1.915-3.104-3.63-4.823-5.345
		c-12.755-12.818-30.657-20.814-50.214-20.814H71.021c-19.557,0-37.395,7.996-50.21,20.814c-1.715,1.715-3.301,3.43-4.823,5.345
		C8.785,90.009,3.63,100.649,1.386,112.275C0.464,116.762,0,121.399,0,126.087V385.92c0,9.968,2.114,19.55,5.884,28.203
		c3.497,8.26,8.653,15.734,14.926,22.001c1.59,1.586,3.169,3.044,4.892,4.494c12.286,10.175,28.145,16.32,45.319,16.32h369.958
		c17.18,0,33.108-6.145,45.323-16.384c1.718-1.386,3.305-2.844,4.891-4.43c6.27-6.267,11.425-13.741,14.994-22.001v-0.064
		c3.769-8.653,5.812-18.171,5.812-28.138V126.087C512,121.399,511.543,116.762,510.678,112.275z M46.509,101.571
		c6.345-6.338,14.866-10.175,24.512-10.175h369.958c9.646,0,18.242,3.837,24.512,10.175c1.122,1.129,2.179,2.387,3.112,3.637
		L274.696,274.203c-5.348,4.687-11.954,7.002-18.696,7.002c-6.674,0-13.276-2.315-18.695-7.002L43.472,105.136
		C44.33,103.886,45.387,102.7,46.509,101.571z M36.334,385.92V142.735L176.658,265.15L36.405,387.435
		C36.334,386.971,36.334,386.449,36.334,385.92z M440.979,420.597H71.021c-6.281,0-12.158-1.651-17.174-4.552l147.978-128.959
		l13.815,12.018c11.561,10.046,26.028,15.134,40.36,15.134c14.406,0,28.872-5.088,40.432-15.134l13.808-12.018l147.92,128.959
		C453.137,418.946,447.26,420.597,440.979,420.597z M475.666,385.92c0,0.529,0,1.051-0.068,1.515L335.346,265.221L475.666,142.8
		V385.92z"></path>
  </symbol>
   <symbol viewBox="0 0 512 512" id="key">
   <path d="M256,0c-80.076,0-145.222,65.146-145.222,145.222c0,31.671,10.018,61.773,28.974,87.04
		c16.052,21.412,38.075,38.182,62.832,48.014v193.549c0,8.448,4.089,16.443,10.933,21.384l16.336,11.799
		c4.522,3.266,9.862,4.991,15.435,4.991c8.221,0,16.088-3.911,21.05-10.464l39.864-52.728c7.078-9.372,7.078-22.464-0.014-31.828
		l-8.612-11.366l8.598-11.353c7.106-9.371,7.106-22.478,0-31.856l-8.512-11.232l24.593-31.778c3.557-4.6,5.524-10.33,5.524-16.144
		v-31.764c20.489-11.658,37.883-28.157,50.655-48.142c14.909-23.316,22.79-50.33,22.79-78.124C401.222,65.146,336.076,0,256,0z
		 M312.754,262.428v40.823c0,2.52-0.838,4.962-2.379,6.95l-26.311,33.993c-3.146,4.061-3.174,9.719-0.071,13.809l10.209,13.468
		c3.067,4.054,3.067,9.662,0,13.716l-15.463,20.411v0.021l15.47,20.426c3.066,4.054,3.066,9.649,0.007,13.702l-39.864,52.721
		c-2.23,2.954-5.63,4.508-9.066,4.508c-2.308,0-4.636-0.702-6.638-2.151l-16.336-11.792c-2.953-2.138-4.707-5.56-4.707-9.208
		v-204.17c-53.162-16.379-91.805-65.892-91.805-124.434c0-71.912,58.295-130.199,130.2-130.199
		c71.912,0,130.199,58.288,130.199,130.199C386.199,196.786,356.224,241.343,312.754,262.428z"></path>
      <path d="M256.852,67.488c-15.037,0-27.234,12.19-27.234,27.234c0,15.036,12.197,27.226,27.234,27.226
		c15.037,0,27.234-12.19,27.234-27.226C284.086,79.679,271.889,67.488,256.852,67.488z"></path>
      <path d="M242.319,455.693H256V275.421c-4.622,0-9.187-0.248-13.681-0.717V455.693z"></path>
  </symbol>
  <symbol viewBox="0 0 32 32" id="register">
    <path d="M16 15.503A5.041 5.041 0 1 0 16 5.42a5.041 5.041 0 0 0 0 10.083zm0 2.215c-6.703 0-11 3.699-11 5.5v3.363h22v-3.363c0-2.178-4.068-5.5-11-5.5z"></path>
  </symbol>
<symbol id="login" viewBox="0 0 24 24">
<path d="M6 16.9998C6 17.3511 6 17.5268 6.01567 17.6795C6.14575 18.9473 7.0626 19.9945 8.30206 20.291C8.45134 20.3267 8.6255 20.3499 8.97368 20.3963L15.5656 21.2753C17.442 21.5254 18.3803 21.6505 19.1084 21.361C19.7478 21.1068 20.2803 20.6406 20.6168 20.0405C21 19.3569 21 18.4104 21 16.5174V7.48232C21 5.58928 21 4.64275 20.6168 3.95923C20.2803 3.35911 19.7478 2.89288 19.1084 2.63868C18.3803 2.34914 17.442 2.47423 15.5656 2.72442L8.97368 3.60335C8.62546 3.64978 8.45135 3.67299 8.30206 3.7087C7.0626 4.0052 6.14575 5.05241 6.01567 6.32018C6 6.47288 6 6.64854 6 6.99984M12 7.99984L16 11.9998M16 11.9998L12 15.9998M16 11.9998H3"></path>
</symbol>
<symbol id="house" viewBox="0 0 24 24">
 <path id="Vector" d="M2 20.0001H4M4 20.0001H10M4 20.0001V11.4522C4 10.9179 4 10.6506 4.06497 10.4019C4.12255 10.1816 4.21779 9.97307 4.3457 9.78464C4.49004 9.57201 4.69064 9.39569 5.09277 9.04383L9.89436 4.84244C10.6398 4.19014 11.0126 3.86397 11.4324 3.73982C11.8026 3.63035 12.1972 3.63035 12.5674 3.73982C12.9875 3.86406 13.3608 4.19054 14.1074 4.84383L18.9074 9.04383C19.3095 9.39568 19.5102 9.57202 19.6546 9.78464C19.7825 9.97307 19.877 10.1816 19.9346 10.4019C19.9995 10.6506 20 10.9179 20 11.4522V20.0001M10 20.0001H14M10 20.0001V16.0001C10 14.8955 10.8954 14.0001 12 14.0001C13.1046 14.0001 14 14.8955 14 16.0001V20.0001M14 20.0001H20M20 20.0001H22" stroke="#000000" stroke-width="2" stroke-linecap="round" stroke-linejoin="round"></path>
</symbol>
<symbol id="arrow-left" viewBox="0 0 32 32">
<path d="M5.333 16h21.333M5.333 16l8-8M5.333 16l8 8"></path>
</symbol>
<symbol id="burger" viewBox="0 0 32 32">
<path d="M5.333 9.333h21.333M5.333 16h21.333M5.333 22.667h21.333"></path>
</symbol>
<symbol id="camera" viewBox="0 0 32 32">
<path d="M16 21.333c2.209 0 4-1.791 4-4s-1.791-4-4-4v0c-2.209 0-4 1.791-4 4s1.791 4 4 4v0z"></path>
<path d="M4 12c0-1.473 1.194-2.667 2.667-2.667v0h3.333c0.736 0 1.333-0.597 1.333-1.333v0c0-0.736 0.597-1.333 1.333-1.333v0h6.667c0.736 0 1.333 0.597 1.333 1.333v0c0 0.736 0.597 1.333 1.333 1.333v0h3.333c1.473 0 2.667 1.194 2.667 2.667v0 10.667c0 1.473-1.194 2.667-2.667 2.667v0h-18.667c-1.473 0-2.667-1.194-2.667-2.667v0-10.667z"></path>
</symbol>
<symbol id="check" viewBox="0 0 32 32">
<path d="M22.667 12l-9.333 9.333-4-4M10.667 26.667h10.667c2.946 0 5.333-2.388 5.333-5.333v0-10.667c0-2.946-2.388-5.333-5.333-5.333v0h-10.667c-2.946 0-5.333 2.388-5.333 5.333v0 10.667c0 2.946 2.388 5.333 5.333 5.333v0z"></path>
</symbol>
<symbol id="clock" viewBox="0 0 32 32">
<path  d="M16.33 9.6v6.4l3.84 3.84M27.85 16c0 6.362-5.158 11.52-11.52 11.52s-11.52-5.158-11.52-11.52v0c0-6.362 5.158-11.52 11.52-11.52s11.52 5.158 11.52 11.52v0z"></path>
</symbol>
<symbol id="cross" viewBox="0 0 32 32">
<path d="M25.333 6.667l-18.667 18.667M6.667 6.667l18.667 18.667"></path>
</symbol>
<symbol id="cross-small" viewBox="0 0 32 32">
<path d="M21.333 10.667l-10.667 10.667M10.667 10.667l10.667 10.667"></path>
</symbol>
<symbol id="complite" viewBox="0 0 32 32">
<path d="M26.667 9.333l-14.667 14.667-6.667-6.667"></path>
</symbol>
<symbol id="down" viewBox="0 0 32 32">
<path d="M5.333 12l10.667 10.667 10.667-10.667"></path>
</symbol>
<symbol id="edit" viewBox="0 0 24 24">
 <path d="M12.4445 19.6875H20.9445M14.4443 5.68747L5.44587 14.6859C4.78722 15.3446 4.26719 16.1441 4.10888 17.062C3.94903 17.9888 3.89583 19.139 4.44432 19.6875C4.99281 20.236 6.14299 20.1828 7.0698 20.0229C7.98772 19.8646 8.78722 19.3446 9.44587 18.6859L18.4443 9.68747M14.4443 5.68747C14.4443 5.68747 17.4443 2.68747 19.4443 4.68747C21.4443 6.68747 18.4443 9.68747 18.4443 9.68747M14.4443 5.68747L18.4443 9.68747"></path>
</symbol>
<symbol id="eye-closed" viewBox="0 0 32 32">
<path d="M13.019 7.060c0.894-0.25 1.921-0.393 2.981-0.393 0 0 0 0 0.001 0h-0c8.485 0 13.333 9.333 13.333 9.333s-1.105 2.128-3.184 4.352M5.799 11.703c-2.045 2.205-3.132 4.297-3.132 4.297s4.848 9.333 13.333 9.333c1.079-0 2.123-0.149 3.113-0.427l-0.081 0.019M15.333 19.947c-1.45-0.252-2.616-1.255-3.098-2.585l-0.009-0.028M16.667 12.055c1.68 0.292 2.987 1.599 3.275 3.255l0.003 0.024M4 4l24 24"></path>
</symbol>
<symbol id="eye-open" viewBox="0 0 32 32">
<path d="M2.667 16s4.848-9.333 13.333-9.333 13.333 9.333 13.333 9.333-4.848 9.333-13.333 9.333-13.333-9.333-13.333-9.333z"></path>
<path d="M16 20c2.209 0 4-1.791 4-4s-1.791-4-4-4v0c-2.209 0-4 1.791-4 4s1.791 4 4 4v0z"></path>
</symbol>
<symbol id="female" viewBox="0 0 19 32">
<path d="M9.6 17.6c4.418 0 8-3.582 8-8s-3.582-8-8-8v0c-4.418 0-8 3.582-8 8s3.582 8 8 8v0zM9.6 17.6v12.8M4.8 25.6h9.6"></path>
</symbol>
<symbol id="filters" viewBox="0 0 32 32">
<path d="M6.090 5.76l6.4 10.24v7.68l7.68 3.84v-11.52l6.4-10.24h-20.48z"></path>
</symbol>
<symbol id="filters-burger" viewBox="0 0 32 32">
<path d="M18.667 6.667c0-1.473-1.194-2.667-2.667-2.667s-2.667 1.194-2.667 2.667v0M18.667 6.667c0 1.473-1.194 2.667-2.667 2.667s-2.667-1.194-2.667-2.667v0M18.667 6.667h8M13.333 6.667h-8M21.333 16c0 1.473 1.194 2.667 2.667 2.667s2.667-1.194 2.667-2.667v0c0-1.473-1.194-2.667-2.667-2.667s-2.667 1.194-2.667 2.667v0zM21.333 16h-16M10.667 25.333c0-1.473-1.194-2.667-2.667-2.667s-2.667 1.194-2.667 2.667v0c0 1.473 1.194 2.667 2.667 2.667s2.667-1.194 2.667-2.667v0zM10.667 25.333h16"></path>
</symbol>
<symbol id="heart" viewBox="0 0 32 32">
<path d="M5.775 16.063l10.225 10.604 10.225-10.604c1.099-1.148 1.775-2.708 1.775-4.426 0-0.007 0-0.013-0-0.019v0.001c0-3.471-2.713-6.285-6.061-6.285-1.685 0.005-3.204 0.71-4.283 1.838l-0.002 0.002-1.653 1.717-1.653-1.717c-1.082-1.13-2.601-1.835-4.284-1.84h-0.001c-3.347 0-6.061 2.813-6.061 6.285 0 1.667 0.639 3.267 1.775 4.444z"></path>
</symbol>
<symbol id="location" viewBox="0 0 32 32">
<path d="M26.57 14.72c0 5.655-4.585 10.24-10.24 12.8-5.655-2.56-10.24-7.145-10.24-12.8s4.585-10.24 10.24-10.24 10.24 4.585 10.24 10.24v0z"></path>
<path d="M20.17 14.72c0 2.121-1.719 3.84-3.84 3.84s-3.84-1.719-3.84-3.84v0c0-2.121 1.719-3.84 3.84-3.84s3.84 1.719 3.84 3.84v0z"></path>
</symbol>
<symbol id="logout" viewBox="0 0 32 32">
<path d="M18.667 5.333h5.333c1.473 0 2.667 1.194 2.667 2.667v0 16c0 1.473-1.194 2.667-2.667 2.667v0h-5.333M4 16h16M4 16l5.333-5.333M4 16l5.333 5.333"></path>
</symbol>
<symbol id="male" viewBox="0 0 19 32">
<path  d="M9.6 14.4c-4.418 0-8 3.582-8 8s3.582 8 8 8v0c4.418 0 8-3.582 8-8s-3.582-8-8-8v0zM9.6 14.4v-12.8M9.6 1.6l6.4 6.4M9.6 1.6l-6.4 6.4"></path>
</symbol>
<symbol id="paw" viewBox="0 0 32 32">
<path  d="M20.481 19.149c-0.364-2.684-2.056-4.905-4.382-6.004l-0.047-0.020c-0.965-0.463-2.098-0.734-3.294-0.734-1.547 0-2.988 0.453-4.198 1.232l0.031-0.018-5.432 3.439c-0.889 0.566-1.572 1.387-1.952 2.36l-0.012 0.033c-0.21 0.526-0.332 1.135-0.332 1.773 0 0.47 0.066 0.925 0.19 1.355l-0.008-0.035c0.296 1.051 0.903 1.933 1.714 2.565l0.011 0.008c0.841 0.655 1.851 1.013 2.919 1.037l0.069 0.001c2.786 0.087 5.265 1.337 6.978 3.279l0.009 0.011c0.682 0.777 1.598 1.335 2.637 1.563l0.033 0.006c0.313 0.071 0.671 0.112 1.040 0.112 0.74 0 1.441-0.164 2.070-0.458l-0.030 0.013c0.974-0.448 1.756-1.175 2.261-2.078l0.013-0.025c0.517-0.933 0.715-1.987 0.573-3.044l-0.859-6.372zM17.716 28.961c-1.236 0.561-2.667 0.253-3.563-0.767-1.042-1.182-2.306-2.142-3.73-2.818l-0.070-0.030c-1.354-0.647-2.937-1.041-4.609-1.080l-0.014-0-0.047-0.001c-1.352-0.046-2.477-0.968-2.827-2.215l-0.005-0.021c-0.072-0.247-0.114-0.532-0.114-0.825 0-1.080 0.563-2.028 1.411-2.567l0.012-0.007 5.433-3.44c0.895-0.578 1.989-0.922 3.164-0.922 0.908 0 1.769 0.206 2.537 0.573l-0.036-0.015c1.801 0.85 3.086 2.535 3.359 4.543l0.003 0.031 0.857 6.373c0.018 0.125 0.029 0.27 0.029 0.417 0 1.227-0.727 2.284-1.774 2.765l-0.019 0.008zM6.295 12.527c1.104 0.077 2.165-0.345 2.992-1.189 0.787-0.803 1.264-1.901 1.347-3.091 0.080-1.189-0.243-2.343-0.909-3.247-0.703-0.948-1.696-1.513-2.799-1.589-2.216-0.153-4.16 1.767-4.336 4.281-0.137 2.003 0.891 3.787 2.433 4.507 0.395 0.183 0.823 0.297 1.272 0.328zM4.461 7.82c0.103-1.48 1.151-2.62 2.336-2.537 0.213 0.013 0.421 0.069 0.617 0.16 0.303 0.141 0.576 0.369 0.8 0.673 0.404 0.545 0.597 1.256 0.547 2.001-0.052 0.747-0.341 1.423-0.816 1.908-0.435 0.444-0.975 0.668-1.52 0.631-1.185-0.081-2.067-1.353-1.964-2.835zM14.188 11.529c2.349 1.095 5.276-0.191 6.524-2.867 1.248-2.677 0.352-5.747-1.997-6.841-2.348-1.096-5.275 0.191-6.523 2.867-1.248 2.677-0.352 5.747 1.996 6.84zM17.923 3.521c1.412 0.657 1.9 2.608 1.089 4.348-0.811 1.739-2.62 2.617-4.031 1.96-1.412-0.659-1.9-2.609-1.089-4.347 0.811-1.74 2.619-2.62 4.031-1.961zM20.992 16.152c0.305 0.288 0.647 0.517 1.013 0.689 1.713 0.799 3.965 0.331 5.496-1.289 0.88-0.932 1.4-2.109 1.463-3.315 0.067-1.263-0.371-2.405-1.231-3.217-0.859-0.811-2.024-1.184-3.28-1.047-1.201 0.131-2.347 0.715-3.228 1.648-1.859 1.965-1.963 4.896-0.233 6.531zM22.588 10.909c0.576-0.609 1.309-0.989 2.067-1.072 0.701-0.076 1.337 0.119 1.791 0.547 0.453 0.427 0.683 1.052 0.645 1.756-0.040 0.76-0.377 1.515-0.953 2.124-1.147 1.213-2.879 1.451-3.857 0.525-0.977-0.925-0.84-2.667 0.308-3.88zM30.227 19.769c-1.063-1.953-3.727-2.564-5.941-1.363-2.213 1.203-3.151 3.769-2.092 5.72 0.387 0.713 0.987 1.247 1.699 1.58 1.244 0.58 2.833 0.548 4.241-0.216 2.213-1.203 3.152-3.769 2.093-5.721zM27.24 23.843c-1.307 0.708-2.832 0.435-3.397-0.609-0.567-1.044 0.035-2.469 1.339-3.179 0.867-0.471 1.829-0.507 2.545-0.173 0.361 0.168 0.661 0.432 0.852 0.783 0.565 1.044-0.036 2.469-1.34 3.179z"></path>
</symbol>
<symbol id="plus" viewBox="0 0 32 32">
<path d="M16 26.667v-10.667M16 16v-10.667M16 16h10.667M16 16h-10.667"></path>
</symbol>
<symbol id="plus-small" viewBox="0 0 32 32">
<path d="M16 9.333v13.333M9.333 16h13.333"></path>
</symbol>
<symbol id="search" viewBox="0 0 32 32">
<path d="M25.96 27.373c0.183 0.196 0.443 0.318 0.732 0.318 0.552 0 1-0.448 1-1 0-0.289-0.122-0.549-0.318-0.731l-0.001-0.001-1.413 1.413zM23 14c0 4.971-4.029 9-9 9v0 2c6.075 0 11-4.925 11-11v0h-2zM14 23c-4.971 0-9-4.029-9-9v0h-2c0 6.075 4.925 11 11 11v0-2zM5 14c0-4.971 4.029-9 9-9v0-2c-6.075 0-11 4.925-11 11v0h2zM14 5c4.971 0 9 4.029 9 9v0h2c0-6.075-4.925-11-11-11v0 2zM27.373 25.96l-5.583-5.584-1.413 1.413 5.583 5.584 1.413-1.413z"></path>
</symbol>
<symbol id="trash" viewBox="0 0 32 32">
<path d="M24 8v16c0 1.473-1.194 2.667-2.667 2.667v0h-10.667c-1.473 0-2.667-1.194-2.667-2.667v0-16M20 8v-1.333c0-1.473-1.194-2.667-2.667-2.667v0h-2.667c-1.473 0-2.667 1.194-2.667 2.667v0 1.333M5.333 8h21.333M13.333 13.333v8M18.667 13.333v8"></path>
</symbol>
<symbol id="uncheck" viewBox="0 0 32 32">
<path d="M5.333 10.667c0-2.946 2.388-5.333 5.333-5.333v0h10.667c2.946 0 5.333 2.388 5.333 5.333v0 10.667c0 2.946-2.388 5.333-5.333 5.333v0h-10.667c-2.946 0-5.333-2.388-5.333-5.333v0-10.667z"></path>
</symbol>
<symbol id="up" viewBox="0 0 32 32">
<path d="M26.667 20l-10.667-10.667-10.667 10.667"></path>
</symbol>
<symbol id="user" viewBox="0 0 32 32">
<path d="M25.143 27.429v-2.286c0-2.525-2.047-4.571-4.571-4.571v0h-9.143c-2.525 0-4.571 2.047-4.571 4.571v0 2.286M20.571 11.429c0 2.525-2.047 4.571-4.571 4.571s-4.571-2.047-4.571-4.571v0c0-2.525 2.047-4.571 4.571-4.571s4.571 2.047 4.571 4.571v0z"></path>
<path d="M16 0.857c8.363 0 15.143 6.78 15.143 15.143s-6.78 15.143-15.143 15.143c-8.363 0-15.143-6.78-15.143-15.143s6.78-15.143 15.143-15.143z"></path>
</symbol>

<symbol id="add-photo-pet" viewBox="0 0 33 32">
<path fill="none" stroke="#54adff" style="stroke: var(--color1, #54adff)" stroke-linejoin="miter" stroke-linecap="round" stroke-miterlimit="4" stroke-width="1.28" d="M16.64 31.36v-15.36M16.64 16v-15.36M16.64 16h15.6M16.64 16h-15.6"></path>
</symbol>
<symbol id="sun" viewBox="0 0 512 512">
  <path d="M477.45 256c0-21.75 39.41-48.387 34.05-68.45-5.55-20.757-53.156-24.1-63.672-42.277-10.668-18.433 10.125-61.304-4.836-76.265-14.96-14.961-57.832 5.828-76.27-4.836C348.552 53.656 345.208 6.05 324.45.5c-20.063-5.36-46.7 34.05-68.45 34.05S207.613-4.86 187.55.5c-20.757 5.55-24.1 53.156-42.277 63.672C126.84 74.84 83.97 54.047 69.008 69.008c-14.961 14.96 5.828 57.832-4.836 76.27C53.656 163.448 6.05 166.792.5 187.55c-5.36 20.063 34.05 46.7 34.05 68.45S-4.86 304.387.5 324.45c5.55 20.757 53.156 24.1 63.672 42.277 10.668 18.433-10.125 61.304 4.836 76.265 14.96 14.961 57.832-5.828 76.27 4.836 18.171 10.516 21.515 58.121 42.273 63.672 20.062 5.36 46.699-34.05 68.449-34.05s48.387 39.41 68.45 34.05c20.757-5.55 24.1-53.156 42.277-63.672 18.433-10.668 61.304 10.125 76.265-4.836 14.961-14.96-5.828-57.832 4.836-76.27 10.516-18.171 58.121-21.515 63.672-42.273 5.36-20.062-34.05-46.699-34.05-68.449zm0 0" fill="#ffee8c"/>
  <path d="M426.957 256c0 86.348-64.02 157.746-147.191 169.313a170.874 170.874 0 0 1-23.762 1.64c-94.418 0-170.969-76.539-170.969-170.953 0-94.418 76.55-170.957 170.969-170.957 8.066 0 15.996.555 23.762 1.64C362.937 98.25 426.957 169.649 426.957 256zm0 0" fill="#f28f44"/>
  <path d="M426.957 256c0 86.348-64.02 157.746-147.191 169.313C196.59 413.745 132.57 342.347 132.57 256c0-86.352 64.02-157.75 147.196-169.316C362.937 98.25 426.957 169.648 426.957 256zm0 0" fill="#ffd073"/>
  <path d="M155.875 229.488a7.802 7.802 0 0 1-5.54-2.297 7.832 7.832 0 0 1 0-11.082c17.532-17.53 46.056-17.53 63.583 0a7.832 7.832 0 0 1 0 11.082 7.84 7.84 0 0 1-11.082 0c-11.418-11.421-29.996-11.421-41.418 0a7.811 7.811 0 0 1-5.543 2.297zm200.25 0a7.811 7.811 0 0 1-5.543-2.297c-11.418-11.421-30-11.418-41.418 0a7.84 7.84 0 0 1-11.082 0 7.832 7.832 0 0 1 0-11.082c17.527-17.53 46.055-17.53 63.586 0a7.84 7.84 0 0 1-5.543 13.38zM256 310.582c-17.016 0-33.016-6.629-45.047-18.66a7.84 7.84 0 0 1 0-11.082 7.832 7.832 0 0 1 11.082 0c9.074 9.07 21.133 14.066 33.965 14.066s24.89-4.996 33.965-14.066a7.832 7.832 0 0 1 11.082 0 7.84 7.84 0 0 1 0 11.082c-12.031 12.031-28.031 18.66-45.047 18.66zm0 0" fill="#cc9236"/>
</symbol>
<symbol id="moon" viewBox="0 0 64 64" >
  <path d="M43 28c.05-.66.09-1.33.09-2a27.763 27.763 0 0 0-.44-5.03 25.552 25.552 0 0 0-2.5-7.51A22.381 22.381 0 0 0 29 3a32.934 32.934 0 0 1 24.98 13.11 27.4 27.4 0 0 1 3.75 6.91A24.754 24.754 0 0 1 59 28z" fill="#d9176c"/>
  <circle cx="29" cy="6" fill="#9b1e5a" r="3"/>
  <path d="M58 32a29 29 0 0 1-29 29A28.275 28.275 0 0 1 3 44a23.765 23.765 0 0 0 17 7 25.076 25.076 0 0 0 4.75-.46 18.565 18.565 0 0 0 1.99-.46A23.934 23.934 0 0 0 32 48l-3-6h9.98A25.326 25.326 0 0 0 44 32z" fill="#f9bb4b"/>
  <path d="M49 45a5.006 5.006 0 0 1-5-5h2a3 3 0 0 0 6 0h2a5.006 5.006 0 0 1-5 5zm-12 9.11a15.652 15.652 0 0 1-4.9.89c-5.42 0-7.14-3.93-7.35-4.46a18.565 18.565 0 0 0 1.99-.46c.46.97 2.66 4.46 9.63 2.13z" fill="#394d5c"/>
  <path d="M57.73 23.02a3.951 3.951 0 0 1-2.43.84 3.985 3.985 0 0 1-1.32-7.75 27.4 27.4 0 0 1 3.75 6.91zm-11.89-5.96a4 4 0 0 1-3.19 3.91 25.552 25.552 0 0 0-2.5-7.51 3.824 3.824 0 0 1 1.69-.4 4.005 4.005 0 0 1 4 4z" fill="#eb8cb3"/>
  <path d="M20 42h-5a1 1 0 0 1-.707-1.707L17.586 37H15a1 1 0 0 1 0-2h5a1 1 0 0 1 .707 1.707L17.414 40H20a1 1 0 0 1 0 2zm13-10h-6a1 1 0 0 1-.707-1.707L30.586 26H27a1 1 0 0 1 0-2h6a1 1 0 0 1 .707 1.707L29.414 30H33a1 1 0 0 1 0 2zM22 22h-8a1 1 0 0 1-.707-1.707L19.586 14H14a1 1 0 0 1 0-2h8a1 1 0 0 1 .707 1.707L16.414 20H22a1 1 0 0 1 0 2z" fill="#7fcac9"/>
  <path d="M41 28h20v4H41z" fill="#6f1d48"/>
</symbol>
<symbol id="dollar" viewBox="0 0 32 32">
<path d="M8 21.562c0.296 3.334 3.026 5.7 7.182 6.006v2.432h2.086v-2.432c4.54-0.358 7.356-2.876 7.356-6.6 0-3.18-1.894-5.020-5.912-6.056l-1.444-0.374v-7.604c2.244 0.22 3.758 1.428 4.14 3.232h2.94c-0.332-3.2-3.080-5.496-7.080-5.75v-2.416h-2.086v2.466c-3.878 0.46-6.54 2.944-6.54 6.312 0 2.908 1.932 4.966 5.322 5.834l1.22 0.324v8.062c-2.298-0.34-3.88-1.6-4.262-3.436h-2.922zM14.782 13.89c-2.086-0.526-3.2-1.65-3.2-3.232 0-1.888 1.408-3.282 3.6-3.656v6.99l-0.4-0.1zM17.964 17.634c2.574 0.646 3.704 1.718 3.704 3.538 0 2.194-1.652 3.656-4.4 3.878v-7.59l0.696 0.172z"></path>
</symbol>
<symbol id="star" viewBox="0 0 32 32">
<path d="M32 12.408l-11.056-1.607-4.944-10.018-4.944 10.018-11.056 1.607 8 7.798-1.889 11.011 9.889-5.199 9.889 5.199-1.889-11.011 8-7.798z"></path>
</symbol>
<symbol id="google" viewBox="0 0 186.69 190.5">
  <path d="M95.25 77.932v36.888h51.262c-2.251 11.863-9.006 21.908-19.137 28.662l30.913 23.986c18.011-16.625 28.402-41.044 28.402-70.052 0-6.754-.606-13.249-1.732-19.483z" fill="#4285f4"/>
  <path d="m41.869 113.38-6.972 5.337-24.679 19.223c15.673 31.086 47.796 52.561 85.03 52.561 25.717 0 47.278-8.486 63.038-23.033l-30.913-23.986c-8.486 5.715-19.31 9.179-32.125 9.179-24.765 0-45.806-16.712-53.34-39.226z" fill="#34a853"/>
  <path d="M10.218 52.561C3.724 65.376.001 79.837.001 95.25s3.723 29.874 10.217 42.689c0 .086 31.693-24.592 31.693-24.592-1.905-5.715-3.031-11.776-3.031-18.098s1.126-12.383 3.031-18.098z" fill="#fbbc05"/>
  <path d="M95.25 37.927c14.028 0 26.497 4.849 36.455 14.201l27.276-27.276C142.442 9.439 120.968 0 95.25 0 58.016 0 25.891 21.388 10.218 52.561L41.91 77.153c7.533-22.514 28.575-39.226 53.34-39.226z" fill="#ea4335"/>
</symbol>
</defs>
</svg>